<svg width="16" height="22" viewBox="0 0 16 22" xmlns="http://www.w3.org/2000/svg">
<path d="M8.15963 10.62C8.12963 10.62 8.10963 10.62 8.07963 10.62C8.02963 10.61 7.95963 10.61 7.89963 10.62C4.99963 10.53 2.80963 8.25 2.80963 5.44C2.80963 2.58 5.13963 0.25 7.99963 0.25C10.8596 0.25 13.1896 2.58 13.1896 5.44C13.1796 8.25 10.9796 10.53 8.18963 10.62C8.17963 10.62 8.16963 10.62 8.15963 10.62ZM7.99963 1.75C5.96963 1.75 4.30963 3.41 4.30963 5.44C4.30963 7.44 5.86963 9.05 7.85963 9.12C7.90963 9.11 8.04963 9.11 8.17963 9.12C10.1396 9.03 11.6796 7.42 11.6896 5.44C11.6896 3.41 10.0296 1.75 7.99963 1.75Z"/>
<path d="M8.16961 21.55C6.20961 21.55 4.23961 21.05 2.74961 20.05C1.35961 19.13 0.599609 17.87 0.599609 16.5C0.599609 15.13 1.35961 13.86 2.74961 12.93C5.74961 10.94 10.6096 10.94 13.5896 12.93C14.9696 13.85 15.7396 15.11 15.7396 16.48C15.7396 17.85 14.9796 19.12 13.5896 20.05C12.0896 21.05 10.1296 21.55 8.16961 21.55ZM3.57961 14.19C2.61961 14.83 2.09961 15.65 2.09961 16.51C2.09961 17.36 2.62961 18.18 3.57961 18.81C6.06961 20.48 10.2696 20.48 12.7596 18.81C13.7196 18.17 14.2396 17.35 14.2396 16.49C14.2396 15.64 13.7096 14.82 12.7596 14.19C10.2696 12.53 6.06961 12.53 3.57961 14.19Z"/>
</svg>
